<svg width="271" height="227" viewBox="0 0 271 227" fill="none" xmlns="http://www.w3.org/2000/svg">
<path d="M141 227C206.446 227 259.5 176.184 259.5 113.5C259.5 50.8157 206.446 0 141 0C75.5543 0 22.5 50.8157 22.5 113.5C22.5 176.184 75.5543 227 141 227Z" fill="#92C5FF"/>
<path fill-rule="evenodd" clip-rule="evenodd" d="M225.181 105.592C227.109 103.328 228.415 100.553 228.197 97.4443C227.568 88.4859 215.098 90.4566 212.672 94.978C210.246 99.4995 210.535 110.968 213.67 111.776C214.92 112.099 217.583 111.309 220.294 109.675L218.593 121.713H228.639L225.181 105.592Z" fill="#B28B67"/>
<path fill-rule="evenodd" clip-rule="evenodd" d="M219.792 98.4336C219.408 103.791 218.39 106.469 216.74 106.469C214.265 106.469 212.165 104.898 211.079 104.898C210.288 104.898 210.464 105.888 210.989 106.623C211.422 107.229 213.53 107.813 213.53 108.753C213.53 109.692 211.865 108.965 211.865 109.523C211.865 110.444 211.572 112.177 213.172 112.177C214.791 112.177 219.432 111.587 220.228 109.184C220.741 107.634 221.073 104.42 221.224 99.5443C221.322 99.5326 221.422 99.5266 221.523 99.5266C222.91 99.5266 224.035 100.651 224.035 102.038C224.035 102.742 223.745 103.379 223.278 103.835C223.859 104.655 224.511 105.512 225.257 106.396C228.061 104.714 230.141 99.7899 227.4 95.0594C226.643 92.742 224.927 91.5041 222.902 90.9294C221.261 90.243 219.557 90.1656 218.119 90.5771C215.3 90.8189 212.783 91.6784 212.07 92.1889C212.07 94.8576 212.587 95.6494 217.004 95.5796C218.089 96.1527 218.923 97.1397 219.792 98.4336Z" fill="#191847"/>
<path fill-rule="evenodd" clip-rule="evenodd" d="M178.874 164.032C175.868 159.956 168.356 162.654 168.36 166.028C168.372 174.888 176.457 216.95 176.879 219.606C177.302 222.261 181.824 223.13 182.087 219.812C182.506 214.532 183.285 196.23 182.506 187.715C182.278 185.228 182.038 182.824 181.797 180.571C186.046 188.205 192.508 198.995 201.182 212.941L206.002 210.738C202.217 198.265 199.113 189.46 196.69 184.322C192.542 175.524 188.652 167.99 187.015 165.336C184.852 161.831 181.345 162.296 178.874 164.032Z" fill="#B28B67"/>
<path fill-rule="evenodd" clip-rule="evenodd" d="M205.658 203.812L189.111 164.614C185.148 158.238 174.034 165.912 175.386 169.61C178.455 178.006 194.063 205.188 194.977 207.69L205.658 203.812Z" fill="#3677C1"/>
<path fill-rule="evenodd" clip-rule="evenodd" d="M167.941 169.089C167.941 180.199 172.811 206.315 172.815 208.762L184.612 208.364C182.55 185.658 181.68 174.227 182.003 174.074C182.729 173.727 211.785 178.095 220.499 178.425C233.065 178.9 238.264 171.191 238.686 156.562H214.345C193.531 159.046 179.851 160.774 173.306 161.746C169.103 162.37 167.941 166.028 167.941 169.089Z" fill="#042F6E"/>
<path fill-rule="evenodd" clip-rule="evenodd" d="M194.079 201.686L191.378 202.359C187.789 203.254 185.605 206.889 186.5 210.478L187.31 213.728C188.205 217.317 191.84 219.501 195.429 218.606L198.13 217.933C201.719 217.038 203.903 213.403 203.009 209.814L202.198 206.564C201.304 202.975 197.669 200.791 194.079 201.686ZM196.878 204.885C197.775 204.661 198.684 205.207 198.908 206.104L200.319 211.764C200.543 212.662 199.997 213.571 199.099 213.794L192.63 215.407C191.733 215.631 190.824 215.085 190.601 214.188L189.189 208.527C188.966 207.63 189.512 206.721 190.409 206.498L196.878 204.885Z" fill="#C5CFD6"/>
<path fill-rule="evenodd" clip-rule="evenodd" d="M182.727 213.555C183.196 214.806 183.43 215.741 183.43 216.362C183.43 217.116 183.304 218.218 183.052 219.666C182.177 219.666 174.307 219.666 159.442 219.666C158.829 217.638 159.183 216.543 160.505 216.381C161.827 216.219 162.925 216.073 163.799 215.943L174.773 211.051C174.984 210.957 175.232 211.052 175.326 211.263C175.327 211.266 175.329 211.27 175.33 211.274L176.036 212.985C177.26 213.556 178.254 213.841 179.019 213.841C179.641 213.841 180.499 213.59 181.594 213.088C182.015 212.895 182.512 213.08 182.704 213.5C182.713 213.518 182.72 213.537 182.727 213.555Z" fill="#0452B5"/>
<path d="M162.291 219.666H181.547C182.356 219.666 183.012 220.322 183.012 221.131C183.012 221.94 182.356 222.596 181.547 222.596H162.291C161.482 222.596 160.826 221.94 160.826 221.131C160.826 220.322 161.482 219.666 162.291 219.666Z" fill="#2F3676"/>
<path fill-rule="evenodd" clip-rule="evenodd" d="M239.942 158.968H195.151C192.839 158.968 190.965 160.843 190.965 163.154V183.666H242.454C243.378 183.666 244.128 182.916 244.128 181.992V163.154C244.128 160.843 242.254 158.968 239.942 158.968Z" fill="#2F3676"/>
<path fill-rule="evenodd" clip-rule="evenodd" d="M195.151 158.968H194.233C192.182 158.968 190.434 160.453 190.102 162.476L180.918 218.41H185.391" fill="#2F3676"/>
<path d="M183.011 226.782C178.85 226.782 175.477 223.409 175.477 219.248C175.477 215.086 178.85 211.713 183.011 211.713C187.173 211.713 190.546 215.086 190.546 219.248C190.546 223.409 187.173 226.782 183.011 226.782Z" fill="#191847"/>
<path fill-rule="evenodd" clip-rule="evenodd" d="M238.686 225.945C256.256 225.945 270.5 211.702 270.5 194.131C270.5 176.561 256.256 162.317 238.686 162.317C221.116 162.317 206.872 176.561 206.872 194.131C206.872 211.702 221.116 225.945 238.686 225.945ZM238.686 220.085C224.352 220.085 212.733 208.465 212.733 194.131C212.733 179.798 224.352 168.178 238.686 168.178C253.02 168.178 264.64 179.798 264.64 194.131C264.64 208.465 253.02 220.085 238.686 220.085Z" fill="#191847"/>
<path d="M237.012 166.503H240.36V221.759H237.012V166.503Z" fill="#191847"/>
<path d="M218.558 175.187L219.741 174.003C220.068 173.676 220.599 173.676 220.925 174.003L258.813 211.891C259.14 212.218 259.14 212.748 258.813 213.075L257.629 214.259C257.302 214.586 256.772 214.586 256.445 214.259L218.558 176.371C218.231 176.044 218.231 175.514 218.558 175.187Z" fill="#191847"/>
<path d="M211.058 194.969V193.294C211.058 192.832 211.432 192.457 211.895 192.457H265.476C265.939 192.457 266.313 192.832 266.313 193.294V194.969C266.313 195.431 265.939 195.806 265.476 195.806H211.895C211.432 195.806 211.058 195.431 211.058 194.969Z" fill="#191847"/>
<path d="M219.742 214.259L218.558 213.075C218.231 212.748 218.231 212.218 218.558 211.891L256.446 174.003C256.773 173.676 257.303 173.676 257.63 174.003L258.814 175.187C259.141 175.514 259.141 176.044 258.814 176.371L220.926 214.259C220.599 214.586 220.069 214.586 219.742 214.259Z" fill="#191847"/>
<path fill-rule="evenodd" clip-rule="evenodd" d="M196.498 151.104L183.146 160.909C179.524 161.886 176.498 163.102 174.068 164.556C173.495 165.079 172.801 166.138 175.181 165.955C177.562 165.772 180.074 165.687 180.402 166.499C180.731 167.311 179.29 168.282 179.954 169.377C180.397 170.107 182.488 168.276 186.227 163.883L199.45 158.4L196.498 151.104ZM247.766 151.442L239.018 151.476C244.42 168.913 247.336 178.164 247.766 179.231C248.735 181.632 246.685 185.288 245.809 187.252C248.663 188.53 248.359 183.799 251.961 185.474C255.248 187.004 257.748 189.775 261.546 187.431C262.013 187.143 262.525 186.058 261.289 185.211C258.209 183.099 253.77 179.403 253.17 178.186C252.353 176.527 250.551 167.612 247.766 151.442Z" fill="#B28B67"/>
<path fill-rule="evenodd" clip-rule="evenodd" d="M222.907 114.735L219.287 114.114C205.857 125.716 200.34 148.005 183.878 159.812L187.84 164.723C216.399 161.187 223.478 134.001 222.907 114.735Z" fill="#D17DFF"/>
<path fill-rule="evenodd" clip-rule="evenodd" d="M238.686 160.224C224.172 160.224 213.496 160.224 206.657 160.224C205.194 160.224 205.47 158.111 205.681 157.045C208.123 144.738 217.654 131.471 217.654 113.952L226.893 112.503C234.534 124.793 237.177 139.924 238.686 160.224Z" fill="#DDE3E9"/>
<path fill-rule="evenodd" clip-rule="evenodd" d="M238.429 124.583C239.77 124.198 240.833 123.298 241.616 121.885C244.993 115.792 243.774 112.437 240.165 111.335C236.556 110.232 233.338 112.503 227.589 112.503C227.276 112.503 226.99 112.523 226.73 112.562L223.838 112.727C215.54 140.849 213.251 159.612 216.972 169.015H242.181C243.674 172.498 245.103 175.428 246.468 177.806H253.337C253.984 156.904 249.014 139.163 238.429 124.583Z" fill="#D17DFF"/>
<path fill-rule="evenodd" clip-rule="evenodd" d="M236.691 154.572C235.898 161.206 234.609 166.02 232.825 169.015H242.18C240.438 164.953 238.608 160.138 236.691 154.572Z" fill="black" fill-opacity="0.1"/>
<path fill-rule="evenodd" clip-rule="evenodd" d="M67.7375 46.4727C70.7148 51.5318 76.0748 63.5249 74.5793 66.0218L61.8775 69.4252C61.8702 69.403 61.8629 69.3809 61.8556 69.3589C57.0082 70.0993 52.2771 67.0889 50.9784 62.2422L48.5804 53.2924C47.1868 48.0917 50.2732 42.7459 55.474 41.3524L56.3499 41.1177C61.0145 39.8678 65.7958 42.2217 67.7375 46.4727Z" fill="#191847"/>
<path fill-rule="evenodd" clip-rule="evenodd" d="M55.4672 59.2631C52.8198 57.4558 50.6828 54.9443 50.0471 51.6588C48.2154 42.1923 61.8109 40.7398 65.6054 44.7487C69.3999 48.7576 72.2852 60.7323 69.2295 62.4493C68.0109 63.134 65.0048 63.062 61.7145 62.1276L66.8397 74.1339L56.3279 76.9505L55.4672 59.2631Z" fill="#B28B67"/>
<path fill-rule="evenodd" clip-rule="evenodd" d="M57.8881 56.9323C59.7541 61.959 61.1379 67.8995 60.069 69.6841L47.3673 73.0875C43.394 61.0899 51.4982 63.9767 48.4235 52.5021C48.7393 51.9749 49.0327 51.4582 49.337 50.9989L49.2325 50.6652C50.2361 45.6129 52.4285 42.6338 55.8098 41.7278C60.8818 40.3687 63.1095 42.2789 65.0047 43.8997C64.9143 47.6392 61.0965 49.2131 58.1607 52.3156C57.657 52.093 57.0751 52.0346 56.4997 52.1888C55.1693 52.5453 54.3772 53.9033 54.7305 55.2219C55.0839 56.5406 56.4488 57.3206 57.7793 56.9641C57.816 56.9543 57.8522 56.9437 57.8881 56.9323Z" fill="#191847"/>
<path fill-rule="evenodd" clip-rule="evenodd" d="M44.8477 157.864C55.7255 160.895 65.1105 162.41 73.0028 162.41C80.895 162.41 88.2257 160.077 94.9949 155.409C84.35 152.299 75.5834 150.743 68.6952 150.743C61.807 150.743 53.8578 153.117 44.8477 157.864Z" fill="#3677C1"/>
<path fill-rule="evenodd" clip-rule="evenodd" d="M82.4199 166.779C82.315 166.622 82.2264 166.451 82.1561 166.266C80.7021 162.436 57.4125 121.113 55.0923 113.559H81.3131C83.0772 119.303 91.0172 155.349 92.1346 162.541C95.6603 173.885 102.919 210.625 103.846 213.17C104.821 215.848 99.3357 218.637 97.874 215.345C95.5483 210.108 90.0068 195.615 87.5394 186.766C85.2262 178.47 83.3426 171.007 82.4199 166.779Z" fill="#997659"/>
<path fill-rule="evenodd" clip-rule="evenodd" d="M60.9673 171.824C50.3197 174.505 11.3729 179.351 8.70019 180.111C5.95082 180.893 3.54014 175.248 6.93852 174.025C12.3459 172.079 27.2457 167.584 36.2795 165.749C43.5457 164.273 50.1763 163.069 54.6278 162.364C54.2507 149.908 52.5268 120.015 53.6567 113.559H76.8573C75.7737 119.75 66.6141 164.924 64.9116 169.446C64.3713 171.06 62.7592 171.774 60.9673 171.824Z" fill="#B28B67"/>
<path fill-rule="evenodd" clip-rule="evenodd" d="M7.15107 172.482C5.72935 172.217 4.68745 172.143 4.02535 172.26C3.22009 172.402 2.06866 172.743 0.57107 173.284C0.735788 174.218 2.21614 182.614 5.01212 198.471C7.2913 198.744 8.39284 198.16 8.31672 196.719C8.2406 195.279 8.18983 194.08 8.1644 193.123L11.319 180.496C11.3797 180.253 11.232 180.007 10.989 179.946C10.9849 179.945 10.9807 179.944 10.9765 179.943L9.01848 179.513C8.17922 178.314 7.68764 177.307 7.54372 176.491C7.4268 175.828 7.53313 174.865 7.86273 173.602C7.98922 173.118 7.69889 172.622 7.21426 172.496C7.19337 172.49 7.1723 172.486 7.15107 172.482Z" fill="#0452B5"/>
<path fill-rule="evenodd" clip-rule="evenodd" d="M96.2097 214.964C95.7024 216.318 95.4487 217.331 95.4487 218.003C95.4487 218.821 95.585 220.014 95.8574 221.583C96.806 221.583 105.331 221.583 121.432 221.583C122.097 219.386 121.713 218.2 120.281 218.025C118.85 217.849 117.66 217.691 116.713 217.55L104.826 212.251C104.597 212.149 104.329 212.251 104.227 212.48C104.225 212.484 104.224 212.488 104.222 212.492L103.458 214.346C102.132 214.964 101.055 215.273 100.227 215.273C99.5532 215.273 98.6233 215.001 97.4368 214.457C96.9815 214.249 96.4432 214.449 96.2345 214.904C96.2255 214.924 96.2172 214.943 96.2097 214.964Z" fill="#0452B5"/>
<path fill-rule="evenodd" clip-rule="evenodd" d="M53.7318 113.559C63.9555 110.645 73.629 110.645 82.7522 113.559C85.9263 127.985 93.6389 133.71 94.9951 155.827C79.5781 163.458 60.5335 150.385 44.663 157.827C40.1286 147.418 46.4768 122.351 53.7318 113.559Z" fill="#042F6E"/>
<path fill-rule="evenodd" clip-rule="evenodd" d="M77.9206 83.6836L91.9309 72.5032C93.9714 69.003 96.0938 66.1898 98.2983 64.0635C99.0068 63.6112 100.31 63.1833 99.4488 65.6116C98.588 68.04 97.7922 70.6326 98.549 71.2006C99.3059 71.7685 100.726 70.5382 101.686 71.5344C102.325 72.1986 99.8216 73.8672 94.1755 76.5404L84.7223 88.7875L77.9206 83.6836ZM103.453 86.5305L109.605 81.6082C109.923 77.8226 110.744 75.8013 112.068 75.5444C113.006 74.8918 112.034 79.7759 113.899 79.0384C115.764 78.3008 119.87 73.9733 120.809 74.5394C122.198 75.3769 121.693 78.7897 120.711 80.6162C118.875 84.0299 117.099 85.3999 112.499 87.5949C110.093 88.7426 107.607 90.6312 105.039 93.2609L103.453 86.5305Z" fill="#997659"/>
<path fill-rule="evenodd" clip-rule="evenodd" d="M70.04 83.1329C75.459 82.1185 82.4974 79.701 89.3618 73.4597L93.5825 79.6567C89.182 85.8581 82.4522 91.5024 75.8689 92.4745C70.6809 93.2405 66.9468 87.492 70.04 83.1329Z" fill="#011A3E"/>
<path fill-rule="evenodd" clip-rule="evenodd" d="M79.2537 92.6398C85.2694 93.0538 94.6372 89.6629 107.357 82.4669C111.944 88.801 114.37 93.4655 114.636 96.4604C104.065 104.562 94.5652 109.018 86.3786 110.645C87.4953 115.451 87.7159 120.173 86.4659 124.743C83.8962 134.139 58.4778 130.339 50.6863 133.343C42.7527 117.902 51.3541 109.542 49.5193 99.0902C47.51 87.6446 53.6385 68.4011 54.9972 68.1616L67.3876 65.9768C69.6124 74.5963 74.7518 83.6218 79.2537 92.6398Z" fill="#3677C1"/>
</svg>
