<svg width="270" height="370" viewBox="0 0 270 370" fill="none" xmlns="http://www.w3.org/2000/svg">
<path d="M138.918 340.699C210.926 340.699 269.3 264.431 269.3 170.349C269.3 76.268 210.926 0 138.918 0C66.9108 0 8.53711 76.268 8.53711 170.349C8.53711 264.431 66.9108 340.699 138.918 340.699Z" fill="#235697"/>
<path fill-rule="evenodd" clip-rule="evenodd" d="M112.598 78.6355C108.363 74.745 105.204 69.7277 104.89 63.7095C103.985 46.3697 128.381 47.2132 134.101 55.3186C139.822 63.4239 141.971 85.5016 136.145 87.7911C133.822 88.7042 128.525 87.8168 122.938 85.32L129.039 108.02L109.759 110.387L112.598 78.6355Z" fill="#915B3C"/>
<path fill-rule="evenodd" clip-rule="evenodd" d="M121.884 46.6674C119.292 46.5627 112.415 47.1162 111.153 47.2714C110.347 47.3704 109.496 47.6619 108.927 46.9801C108.462 46.4219 108.479 45.3789 108.276 44.6896C108.04 43.8889 107.749 43.1058 107.455 42.325C106.62 40.1031 105.515 38.0273 104.091 36.1259C101.42 32.5585 97.8285 29.9483 93.5454 28.6987C88.8156 27.319 83.6775 27.501 78.8932 28.486C73.7733 29.5401 69.3016 31.8221 64.6163 34.0281C60.1514 36.1303 55.352 37.3312 50.3938 37.1812C45.3982 37.03 41.3672 34.8275 36.9219 32.813C32.3711 30.7507 27.3254 29.6559 22.368 30.6587C17.7405 31.5949 13.6713 34.0527 10.1244 37.104C6.80588 39.9589 4.17957 43.226 2.99703 47.5154C1.72484 52.1296 2.31841 56.9501 5.77377 60.4657C10.7822 65.5615 18.9764 66.0322 25.6272 65.0688C29.4742 64.5117 33.176 63.3425 36.6604 61.6145C41.3073 59.3099 45.1487 55.8993 49.4037 52.9923C51.4007 51.6282 53.4935 50.4522 55.7236 49.5164C57.8877 48.608 60.0601 48.0465 62.2561 49.1516C64.5792 50.3206 66.6761 51.4917 69.2427 52.0869C71.7048 52.658 74.2599 52.8328 76.7682 52.5051C81.6484 51.8676 86.2768 49.7543 90.896 48.1523C94.6627 46.8461 98.7005 45.5094 102.743 45.8241C104.43 45.9555 106.918 46.3487 107.723 47.9862C97.9403 51.028 95.5301 63.884 99.466 72.6211C101.59 77.3368 111.445 81.9443 114.686 78.9301C116.74 77.0205 115.108 75.0449 114.049 73.7385C112.02 71.2368 111.012 67.827 113.919 65.5549C116.426 63.5953 119.747 67.1101 119.8 67.0992C120.537 66.9492 126.52 62.524 130.297 56.6746C134.699 56.3971 135.008 53.4345 133.675 51.2064C132.343 48.9782 125.466 46.8124 121.884 46.6674Z" fill="#3F0B58"/>
<path fill-rule="evenodd" clip-rule="evenodd" d="M116.36 176.561L146.008 278.725L159.953 355.431H173.949L159.978 176.561H116.36Z" fill="#784931"/>
<path fill-rule="evenodd" clip-rule="evenodd" d="M103.036 176.561C105.105 229.635 104.289 258.582 103.826 263.404C103.363 268.226 100.734 300.521 82.8228 357.05H97.3803C121.101 302.82 129.382 270.525 132.103 263.404C134.823 256.283 142.858 227.335 154.589 176.561H103.036Z" fill="#915B3C"/>
<path fill-rule="evenodd" clip-rule="evenodd" d="M115.724 176.561C123.436 211.716 136.774 267.832 155.738 344.91H176.21C177.722 265.797 171.29 213.727 160.151 176.561H115.724Z" fill="#011A3E"/>
<path fill-rule="evenodd" clip-rule="evenodd" d="M102.933 176.561C104.959 229.635 99.7079 281.922 83.4434 345.736H105.285C129.05 292.315 146.083 240.285 157.723 176.561H102.933Z" fill="#84ACDF"/>
<path fill-rule="evenodd" clip-rule="evenodd" d="M80.748 367.572L81.5513 354.622C86.2541 355.997 92.1445 355.458 99.2225 353.003C106.833 358.394 116.414 362.075 127.964 364.046C128.846 364.197 129.438 365.033 129.288 365.914C129.278 365.972 129.265 366.028 129.249 366.084L128.139 370H99.2225H82.3545L80.748 367.572Z" fill="#3F0B58"/>
<path fill-rule="evenodd" clip-rule="evenodd" d="M156.829 367.572L157.632 354.622C162.335 355.997 168.225 355.458 175.303 353.003C182.914 358.394 192.494 362.075 204.045 364.046C204.926 364.197 205.519 365.033 205.368 365.914C205.359 365.972 205.346 366.028 205.33 366.084L204.22 370H175.303H158.435L156.829 367.572Z" fill="#3F0B58"/>
<path fill-rule="evenodd" clip-rule="evenodd" d="M183.199 158.187L211.916 172.374C219.14 173.019 225.309 174.318 230.424 176.272C231.693 177.075 233.369 178.859 228.775 179.309C224.181 179.76 219.37 180.441 219.017 182.097C218.664 183.753 221.733 185.118 220.836 187.427C220.239 188.966 215.642 186.182 207.047 179.073L180.028 173.072L183.199 158.187ZM85.6921 176.044L102.36 173.173C97.9299 208.187 95.4839 226.783 95.0223 228.959C93.9839 233.855 99.1144 240.128 101.443 243.574C96.4359 246.966 95.4267 237.855 89.1317 242.254C83.386 246.27 79.555 252.386 71.5367 249.199C70.5509 248.807 69.2124 246.913 71.2818 244.884C76.4374 239.829 83.6477 231.301 84.3811 228.783C85.3813 225.349 85.8183 207.769 85.6921 176.044Z" fill="#915B3C"/>
<path fill-rule="evenodd" clip-rule="evenodd" d="M120.704 97.8041L127.388 95.4066C156.856 112.989 174.843 153.576 210.153 170.531L204.257 181.214C148.69 184.069 126.084 134.679 120.704 97.8041Z" fill="#011A3E"/>
<path fill-rule="evenodd" clip-rule="evenodd" d="M105.931 189.718C133.567 184.845 153.895 181.261 166.916 178.965C169.703 178.474 168.468 174.542 167.707 172.583C158.926 149.968 136.323 127.907 130.441 94.5492L112.364 94.8925C101.94 120.859 101.988 150.557 105.931 189.718Z" fill="#DDE3E9"/>
<path fill-rule="evenodd" clip-rule="evenodd" d="M94.4552 121.767C91.7708 121.484 89.4456 120.127 87.4795 117.699C79.0043 107.231 80.2 100.434 86.701 97.1233C93.2019 93.8121 100.092 97.0565 111.04 95.1261C111.635 95.0211 112.187 94.9623 112.696 94.9496L118.258 94.2928C143.5 145.055 154.157 180.013 150.229 199.166L102.229 207.63C100.554 214.763 98.8165 220.823 97.0159 225.808L83.9368 228.115C75.688 188.531 79.1941 153.082 94.4552 121.767Z" fill="#042F6E"/>
<path fill-rule="evenodd" clip-rule="evenodd" d="M107.832 178.286C111.568 190.651 115.638 199.385 120.042 204.489L102.229 207.63C104.182 199.31 106.05 189.528 107.832 178.286Z" fill="black" fill-opacity="0.1"/>
</svg>
